# xmcd CD database file
#
# Track frame offsets:
#	183
#	14893
#	31278
#	46063
#	58655
#	75963
#	90335
#	105745
#	119610
#	131630
#	148135
#	163595
#	179698
#	194013
#	208538
#	222350
#
# Disc length: 3180 seconds
#
# Revision: 6
# Processed by: cddbd v1.5.2PL0 Copyright (c) Steve Scherf et al.
# Submitted via: CDex 1.70beta2
#
DISCID=ea0c6a10
DTITLE=Die Flippers - Golden Stars
DYEAR=1900
DGENRE=Schlager
TTITLE0=Immer Nur Träumen
TTITLE1=Sha La La I Love You
TTITLE2=Maja
TTITLE3=Jeany Ich Brauch' Dich
TTITLE4=Was Hast Du Am Sonntag Allein Gemacht
TTITLE5=Auf Roten Rosen Fallen Tränen
TTITLE6=Rosemarie
TTITLE7=Aber Dich Gibt's Nur Einmal Für Mich
TTITLE8=Weine nicht, kleine Eva
TTITLE9=Kinder Des Sommers
TTITLE10=Die rote Sonne von Barbados
TTITLE11=Nur Wer Die Sehnsucht Kennt
TTITLE12=Sieben Tage
TTITLE13=Good-Bye Eloisa
TTITLE14=Bye-Bye  Bis Morgen
TTITLE15=Bleib mir treu
EXTD=
EXTT0=
EXTT1=
EXTT2=
EXTT3=
EXTT4=
EXTT5=
EXTT6=
EXTT7=
EXTT8=
EXTT9=
EXTT10=
EXTT11=
EXTT12=
EXTT13=
EXTT14=
EXTT15=
PLAYORDER=
